<?xml version="1.0" encoding="utf-8"?>
<!-- Generator: Adobe Illustrator 25.4.1, SVG Export Plug-In . SVG Version: 6.00 Build 0)  -->
<svg version="1.1" id="Layer_1" xmlns="http://www.w3.org/2000/svg" xmlns:xlink="http://www.w3.org/1999/xlink" x="0px" y="0px"
	 viewBox="0 0 1075.3 242" style="enable-background:new 0 0 1075.3 242;" xml:space="preserve">
<style type="text/css">
	.st0{fill:#333333;}
	.st1{fill:#DCDC00;}
</style>
<g>
	<g>
		<path class="st0" d="M222.2,216.9V25.1c0-8.3,1.9-14.5,5.6-18.8c3.8-4.2,8.9-6.3,15.3-6.3c6.4,0,11.6,2.1,15.5,6.3
			s5.9,10.5,5.9,18.8v191.8c0,8.4-2,14.7-6,18.8c-4,4.2-9.1,6.3-15.4,6.3c-6.2,0-11.2-2.2-15.1-6.5
			C224.1,231.2,222.2,225,222.2,216.9z"/>
		<path class="st0" d="M203.8,95.7c0-0.1,0-0.1,0-0.2v-19l0,0c0-7.5,0.2-13,0-18.5c-0.4-10.1-6.6-17.7-15.7-19.3
			c-12.1-2.2-21.4,2.3-25.6,12.5c-0.7,1.6-1.3,3.2-2.1,5.3c-2.3-1.3-4.2-2.5-6.1-3.5c-27.2-15.7-55.9-19.3-85.5-9
			C28.7,58,4.1,91.4,0.5,134l-0.4,0.3c0,0-5.1,76.6,65.8,101.3v-0.1c16.8,6.6,34.8,8.3,53.8,4.5c14.1-2.8,27.4-9.3,41.3-14.2
			c2.2,8.2,7.3,15.3,18.3,16.1c15.8,1.2,24.4-6.4,24.4-22.4c0.1-28.9,0-57.7,0-86.6l0,0v-23.6C203.8,104.8,203.8,100.3,203.8,95.7z
			 M135.6,189.1c-21.3,14.9-48.8,13.7-69.9-2c-5.9-5.3-24.5-24.1-23-50.7c0.1-1.1,0.2-2.2,0.3-3.3c0.2-1.4,0.4-2.8,0.6-4.2
			c0.3-1.5,0.7-3,1.1-4.4c0.4-1.5,0.8-2.9,1.3-4.4c0.3-0.9,0.7-1.7,1-2.5c0.8-1.9,1.6-3.8,2.6-5.7c6.9-13,18.4-23.1,33-27.9
			c23.5-7.8,47.8-0.8,64.3,18c2.6,3.3,7.2,9.8,10.4,18.2c0.6,1.7,1.2,3.3,1.6,5c0.2,0.8,0.5,1.5,0.7,2.3
			C165,151.2,156,174.8,135.6,189.1z"/>
		<path class="st0" d="M325.6,81.4V25.1c0-8.4-2-14.7-5.9-18.8c-3.9-4.2-9.1-6.3-15.5-6.3s-11.5,2.1-15.3,6.3s-5.6,10.5-5.6,18.8
			v191.8c0,8.1,1.9,14.3,5.8,18.6s8.9,6.5,15.1,6.5c6.3,0,11.4-2.1,15.4-6.3s6-10.4,6-18.8v-22.2c-10.9-16.2-17.3-35.7-17.3-56.7
			C308.3,117,314.7,97.5,325.6,81.4z"/>
		<path class="st1" d="M462.9,80.6c0.6-15-10.2-10.2-10.2-10.2l-25.3,15c-18.1-6.6-37,0.9-37,0.9l-23.2-14.7c0,0-10.8-6.1-12.9,9.3
			l0.5,32.2c-0.2,1.9-0.5,3.9-0.8,5.8c-3.1,9.5-12.5,45.7,19.5,69.5c1.2,0.9,6.4,4.1,7.8,5c16.3,8.9,35.3,9.3,51.8,2.3
			c37.5-16.4,36.1-61.7,36-62.3c-0.9-9.1-5.1-18.4-5.1-18.4L462.9,80.6z"/>
	</g>
	<path class="st0" d="M915.8,46.1c0-6.1,0.2-12.1-0.1-18.2c-0.2-3.3-0.7-6.8-2.1-9.7c-4-8.9-13.7-13.3-23.5-11.2
		C880.5,9,874,17.2,874,28.2c-0.1,38.9-0.1,77.8,0,116.6c0.1,17.9,4.9,34.6,14.2,50c13.7,22.7,33.4,37.9,58.8,45.6
		c16.3,4.9,30.2-6.6,28.1-23c-1.2-9.2-7-14.6-15.7-17.4c-23.8-7.7-38.6-23.7-42.4-48.4c-1.8-11.2-0.9-22.9-0.7-34.3
		c0-1.3,3-3.6,4.7-3.8c5.1-0.5,10.3-0.1,15.5-0.2c12.6-0.5,21.7-9.3,21.8-21.1c0-11.7-9.1-20.8-21.7-21.2c-5.2-0.2-10.3-0.1-15.5,0
		c-3.8,0.1-5.2-1.5-5.1-5.3C916,59.2,915.9,52.7,915.8,46.1z"/>
	<path class="st0" d="M1053.6,71c-5.2-0.2-10.3-0.1-15.5,0h-0.1h-29.5c-0.4,0.1-0.9,0.4-1.3,0.4c-9.6,2-16,10.1-16.1,21.1
		c0,12.8,0,103.8,0,116.7h0.1c0,3.6-0.1,7.3,0.1,10.9c0.2,3.3,0.7,6.8,2.1,9.7c4.1,8.9,13.8,13.3,23.6,11.2
		c9.6-2,16.1-10.2,16.1-21.2c0-6.7,0-13.4,0-20h-0.1c0.1-22.8,0.2-78.7,0.2-82.4c0-1.3,3-3.6,4.7-3.8c5.1-0.5,10.3-0.1,15.5-0.2
		c12.7-0.5,21.7-9.3,21.8-21.1S1066.1,71.4,1053.6,71z"/>
	<path class="st0" d="M858.8,90.7c0-0.1,0-0.1,0-0.2v-19l0,0c0-7.5,0.2-13,0-18.5c-0.4-10.1-6.6-17.6-15.7-19.3
		c-12.1-2.2-21.4,2.3-25.5,12.5c-0.7,1.6-1.3,3.2-2.1,5.3c-2.3-1.3-4.2-2.5-6.1-3.5c-27.1-15.6-55.6-19.2-85.1-8.9
		c-42.5,14.8-67.8,51.2-69,97.4c-0.6,26-17.7,48.3-42.5,55.6c-1.5,0.3-7.5,1.7-9,2c-24.2,3.6-40.7-7.3-50.9-18.2
		c-0.9-1-1.6-1.9-2.4-2.9c-4.6-5.5-7.6-10.6-9.2-13.6c-9.1-18.9-4.1-36.7,2.4-49.1l0,0c0,0,0.1-0.3,0.2-0.4
		c4.1-7.7,8.6-13.2,10.7-15.5c2.9-3.1,6.5-6.1,10.7-8.6c22.2-13.7,40.9-11,52.5-6.5c4.3,1.8,15.1,6.9,19.8,14l20.3-34.6
		c0.8-3.1-0.7-5.2-4.4-7.5C621,30.5,586.8,27,552.1,43.9c-23.1,11.3-39.4,27.7-48.6,48.8h-0.2c-0.4,1-0.6,2-1,3.1
		c-1.3,3.3-2.5,6.7-3.4,10.2c-0.4,1.4-0.7,2.8-1,4.2c-0.8,3.6-1.4,7.3-1.9,11c-0.1,0.8-0.2,1.6-0.3,2.4c-0.2,1.9-0.5,3.7-0.6,5.6
		c-0.6,10.6,0.5,20.7,2.9,30.3c1.8,8.6,3.9,13.9,3.9,13.9l0.6,0.3c18,44.5,66.2,71.9,117.7,60c45-10.4,76.5-50.4,77.7-98.9
		c0.7-26.1,16.4-48,40.2-55.9c23.5-7.8,47.7-0.8,64.2,18c2.6,3.3,7.2,9.8,10.3,18.1c0.6,1.6,1.2,3.3,1.6,4.9
		c0.2,0.8,0.5,1.5,0.7,2.3c5.3,23.7-3.6,47.3-24,61.5c-22.9,16-53.1,13.7-74.6-5.8c-1.1-1-2.3-2-4.2-3.5c-0.6,1.1-1.1,1.8-1.5,2.6
		c-5.8,10.6-11.9,21.1-17.3,31.9c-0.8,1.5,0.3,5.2,1.8,6.3c23.8,18.1,50.8,25.3,80.1,19.4c14-2.8,27.3-9.3,41.2-14.2
		c2.2,8.2,7.3,15.2,18.2,16c15.8,1.2,24.3-6.4,24.3-22.3c0.1-28.8,0-57.6,0-86.4l0,0v-23.5C858.8,99.7,858.8,95.2,858.8,90.7z"/>
</g>
</svg>
