<?xml version="1.0" encoding="utf-8"?>
<!-- Generator: Adobe Illustrator 25.4.1, SVG Export Plug-In . SVG Version: 6.00 Build 0)  -->
<svg version="1.1" id="Layer_1" xmlns="http://www.w3.org/2000/svg" xmlns:xlink="http://www.w3.org/1999/xlink" x="0px" y="0px"
	 viewBox="0 0 640 640" style="enable-background:new 0 0 640 640;" xml:space="preserve">
<style type="text/css">
	.st0{fill:#FFFFFF;}
</style>
<g>
	<circle cx="320" cy="320" r="294.7"/>
	<path class="st0" d="M474.6,161.7c1.8-43.7-29.7-29.7-29.7-29.7l-73.5,43.7c-52.5-19.2-107.6,2.6-107.6,2.6l-67.3-42.9
		c0,0-31.3-17.7-37.5,27l1.5,93.5c-0.7,5.6-1.4,11.2-2.3,16.8c-9.1,27.6-36.2,133,56.7,202.1c3.5,2.6,18.7,12.1,22.6,14.6
		c47.4,25.9,102.7,27.1,150.5,6.6c109-47.8,104.8-179.4,104.7-181c-2.5-26.4-14.7-53.4-14.7-53.4L474.6,161.7z"/>
</g>
</svg>
