<?xml version="1.0" encoding="utf-8"?>
<!-- Generator: Adobe Illustrator 25.4.1, SVG Export Plug-In . SVG Version: 6.00 Build 0)  -->
<svg version="1.1" id="Layer_1" xmlns="http://www.w3.org/2000/svg" xmlns:xlink="http://www.w3.org/1999/xlink" x="0px" y="0px"
	 viewBox="0 0 3005.2 1900" style="enable-background:new 0 0 3005.2 1900;" xml:space="preserve">
<style type="text/css">
	.st0{fill:#161616;}
	.st1{fill:#FFFFFF;}
	.st2{fill:url(#SVGID_1_);}
	.st3{fill:url(#SVGID_00000119107646603331004210000011329593532119207581_);}
	.st4{opacity:0.5;fill:url(#SVGID_00000131345015716353425560000006976725464869317562_);}
	.st5{filter:url(#Adobe_OpacityMaskFilter);}
	.st6{filter:url(#Adobe_OpacityMaskFilter_00000068670837847749836270000005424497980736574870_);}
	
		.st7{mask:url(#SVGID_00000141442229695477808090000010056129933388132275_);fill:url(#SVGID_00000141442157821561169920000005729160642082721181_);}
	.st8{fill:url(#SVGID_00000054947840704545418560000013629866757625968281_);}
	.st9{opacity:0.5;}
	.st10{fill:url(#_x3C_Path3_x3E__00000165945415140763098760000009144372062367086509_);}
	.st11{fill:url(#_x3C_Path2_x3E__00000132774102800682182580000015092163593020124087_);}
	.st12{opacity:0.25;fill:url(#SVGID_00000118363447931809267360000013828739156112303750_);}
</style>
<g>
	<g>
		<g>
			<g>
				<g>
					<path class="st0" d="M2570.6,171.7H439.5c-29,0-52.5,23.5-52.5,52.5v1421.5h2236V224.1C2623.1,195.1,2599.6,171.7,2570.6,171.7
						z"/>
					<rect x="430.9" y="232.7" class="st1" width="2148.3" height="1360.6"/>
					<g>
						
							<image style="overflow:visible;" width="2243" height="1481" xlink:href="342CCAC8.png"  transform="matrix(1 0 0 1 383.7256 168.383)">
						</image>
					</g>
					<g>
						<linearGradient id="SVGID_1_" gradientUnits="userSpaceOnUse" x1="124.8621" y1="1667.9644" x2="2880.3552" y2="1667.9644">
							<stop  offset="0" style="stop-color:#878788"/>
							<stop  offset="1.843246e-04" style="stop-color:#8F8F91"/>
							<stop  offset="7.815917e-04" style="stop-color:#A5A5A7"/>
							<stop  offset="1.480879e-03" style="stop-color:#B6B6B8"/>
							<stop  offset="2.335779e-03" style="stop-color:#C1C1C4"/>
							<stop  offset="3.512147e-03" style="stop-color:#C8C8CB"/>
							<stop  offset="6.529220e-03" style="stop-color:#CACACD"/>
							<stop  offset="1.462560e-02" style="stop-color:#E9E8EF"/>
							<stop  offset="2.835680e-02" style="stop-color:#A6A7A9"/>
							<stop  offset="4.250230e-02" style="stop-color:#B3B4B6"/>
							<stop  offset="6.556340e-02" style="stop-color:#D2D2D4"/>
							<stop  offset="0.109" style="stop-color:#E9E9EB"/>
							<stop  offset="0.8752" style="stop-color:#EBEBED"/>
							<stop  offset="0.9244" style="stop-color:#CCCCCE"/>
							<stop  offset="0.9487" style="stop-color:#AFB0B2"/>
							<stop  offset="0.9608" style="stop-color:#9FA1A1"/>
							<stop  offset="0.9688" style="stop-color:#D1D1D4"/>
							<stop  offset="0.9796" style="stop-color:#E8E7ED"/>
							<stop  offset="0.9915" style="stop-color:#C0BFC1"/>
							<stop  offset="0.9958" style="stop-color:#AFAFB0"/>
							<stop  offset="0.9999" style="stop-color:#878787"/>
						</linearGradient>
						<rect x="124.9" y="1642.9" class="st2" width="2755.5" height="50.1"/>
						
							<linearGradient id="SVGID_00000111149471077126151590000018386741227750781569_" gradientUnits="userSpaceOnUse" x1="1501.246" y1="1727.2031" x2="1501.246" y2="1699.0306">
							<stop  offset="0" style="stop-color:#49484A"/>
							<stop  offset="0.738" style="stop-color:#B0B1B3"/>
							<stop  offset="0.871" style="stop-color:#BABBBD"/>
							<stop  offset="1" style="stop-color:#EBEBED"/>
						</linearGradient>
						<path style="fill:url(#SVGID_00000111149471077126151590000018386741227750781569_);" d="M2656.1,1731.6H346.4
							c-40.3,0-80.4-4.7-119.6-14.1L124.9,1693h2752.8l-101.9,24.4C2736.5,1726.8,2696.4,1731.6,2656.1,1731.6z"/>
						
							<linearGradient id="SVGID_00000055686556702315253910000017829240963320344453_" gradientUnits="userSpaceOnUse" x1="1292.8719" y1="1661.9679" x2="1712.3455" y2="1661.9679">
							<stop  offset="0" style="stop-color:#575756"/>
							<stop  offset="2.522210e-02" style="stop-color:#878788"/>
							<stop  offset="7.566180e-02" style="stop-color:#DADADA"/>
							<stop  offset="0.9168" style="stop-color:#DADADA"/>
							<stop  offset="0.9797" style="stop-color:#7D7D7D"/>
							<stop  offset="0.9859" style="stop-color:#777777"/>
							<stop  offset="0.994" style="stop-color:#676767"/>
							<stop  offset="1" style="stop-color:#575756"/>
						</linearGradient>
						<path style="opacity:0.5;fill:url(#SVGID_00000055686556702315253910000017829240963320344453_);" d="M1682.4,1681h-359.6
							c-16.5,0-30-13.4-30-30v-8.2h419.5v8.2C1712.3,1667.6,1698.9,1681,1682.4,1681z"/>
						<defs>
							<filter id="Adobe_OpacityMaskFilter" filterUnits="userSpaceOnUse" x="1292.9" y="1642.9" width="419.5" height="38.2">
								<feFlood  style="flood-color:white;flood-opacity:1" result="back"/>
								<feBlend  in="SourceGraphic" in2="back" mode="normal"/>
							</filter>
						</defs>
						
							<mask maskUnits="userSpaceOnUse" x="1292.9" y="1642.9" width="419.5" height="38.2" id="SVGID_00000140007945242982693330000012811267175464961423_">
							<g class="st5">
								<defs>
									
										<filter id="Adobe_OpacityMaskFilter_00000060017359883686596750000014581441402038091681_" filterUnits="userSpaceOnUse" x="1292.9" y="1642.9" width="419.5" height="38.2">
										<feFlood  style="flood-color:white;flood-opacity:1" result="back"/>
										<feBlend  in="SourceGraphic" in2="back" mode="normal"/>
									</filter>
								</defs>
								
									<mask maskUnits="userSpaceOnUse" x="1292.9" y="1642.9" width="419.5" height="38.2" id="SVGID_00000140007945242982693330000012811267175464961423_">
								</mask>
								
									<linearGradient id="SVGID_00000066477796267893615740000001318118793379103623_" gradientUnits="userSpaceOnUse" x1="1502.6086" y1="1746.4679" x2="1502.6086" y2="1665.6188">
									<stop  offset="0.4764" style="stop-color:#FFFFFF"/>
									<stop  offset="1" style="stop-color:#000000"/>
								</linearGradient>
								
									<path style="mask:url(#SVGID_00000140007945242982693330000012811267175464961423_);fill:url(#SVGID_00000066477796267893615740000001318118793379103623_);" d="
									M1682.4,1681h-359.6c-16.5,0-30-13.4-30-30v-8.2h419.5v8.2C1712.3,1667.6,1698.9,1681,1682.4,1681z"/>
							</g>
						</mask>
						
							<linearGradient id="SVGID_00000142890906326208037060000011665958069505513091_" gradientUnits="userSpaceOnUse" x1="1502.6086" y1="1746.4679" x2="1502.6086" y2="1665.6188">
							<stop  offset="0.4764" style="stop-color:#575756"/>
							<stop  offset="1" style="stop-color:#DADADA"/>
						</linearGradient>
						<path style="fill:url(#SVGID_00000142890906326208037060000011665958069505513091_);" d="M1682.4,1681h-359.6
							c-16.5,0-30-13.4-30-30v-8.2h419.5v8.2C1712.3,1667.6,1698.9,1681,1682.4,1681z"/>
					</g>
					<g>
						<g class="st9">
							
								<linearGradient id="_x3C_Path3_x3E__00000087374466778789192170000005651795355247813291_" gradientUnits="userSpaceOnUse" x1="3116.1077" y1="57.9076" x2="3116.9905" y2="85.5684" gradientTransform="matrix(1 3.400000e-03 -3.400000e-03 1 -1574.4091 119.3542)">
								<stop  offset="0.4061" style="stop-color:#000000"/>
								<stop  offset="0.5224" style="stop-color:#060606"/>
								<stop  offset="1" style="stop-color:#1A1A1A"/>
							</linearGradient>
							
								<path id="_x3C_Path3_x3E__00000027581760155327747400000001485011570433689496_" style="fill:url(#_x3C_Path3_x3E__00000087374466778789192170000005651795355247813291_);" d="
								M1555.7,201.7c0,7.6-6.2,13.8-13.9,13.8c-7.6,0-13.8-6.2-13.8-13.9c0-7.6,6.2-13.8,13.9-13.8
								C1549.6,187.9,1555.8,194.1,1555.7,201.7z"/>
							
								<linearGradient id="_x3C_Path2_x3E__00000038370826611249048880000000740096480538526093_" gradientUnits="userSpaceOnUse" x1="-2167.1926" y1="4463.3848" x2="-2166.1833" y2="4495.0156" gradientTransform="matrix(3.400000e-03 -1 1 3.400000e-03 -2934.2563 -1979.7955)">
								<stop  offset="0.4061" style="stop-color:#000000"/>
								<stop  offset="0.7822" style="stop-color:#2C2C2C"/>
								<stop  offset="1" style="stop-color:#404040"/>
							</linearGradient>
							
								<path id="_x3C_Path2_x3E__00000150791174836795684810000005424161572920447111_" style="fill:url(#_x3C_Path2_x3E__00000038370826611249048880000000740096480538526093_);" d="
								M1541.7,213.6c-6.4,0-11.6-5.2-11.6-11.7c0-6.4,5.2-11.6,11.7-11.6c6.4,0,11.6,5.2,11.6,11.7
								C1553.4,208.5,1548.1,213.6,1541.7,213.6z"/>
							
								<linearGradient id="SVGID_00000175324304935715258530000014013883149871411375_" gradientUnits="userSpaceOnUse" x1="-2598.3105" y1="4340.1689" x2="-2597.5229" y2="4371.6743" gradientTransform="matrix(-1 -3.400000e-03 -3.400000e-03 1 -1041.4655 -4158.4043)">
								<stop  offset="5.494510e-03" style="stop-color:#FFFFFF"/>
								<stop  offset="1.025000e-02" style="stop-color:#FDFDFD"/>
								<stop  offset="0.2278" style="stop-color:#929292"/>
								<stop  offset="0.4024" style="stop-color:#434343"/>
								<stop  offset="0.5256" style="stop-color:#131313"/>
								<stop  offset="0.5864" style="stop-color:#000000"/>
							</linearGradient>
							<path style="opacity:0.25;fill:url(#SVGID_00000175324304935715258530000014013883149871411375_);" d="M1531.8,202
								c0,5,4.4,9.1,9.9,9.1c5.5,0,10-4,10-9c0-5-4.4-9.1-9.9-9.1C1536.3,192.9,1531.8,197,1531.8,202z"/>
							
								<image style="overflow:visible;" width="14" height="13" id="_x3C_Mesh1_x3E__00000010303482457457543960000010702063227894339511_" xlink:href="342CCACB.png"  transform="matrix(1 0 0 1 1534.7256 195.383)">
							</image>
						</g>
						<path d="M1479.9,201.4c0,7-5.8,12.7-12.8,12.7c-7,0-12.7-5.8-12.7-12.8c0-7,5.8-12.7,12.8-12.7
							C1474.2,188.6,1479.9,194.4,1479.9,201.4z"/>
						<path d="M1516.2,201.4c0,7-5.8,12.7-12.8,12.7c-7,0-12.7-5.8-12.7-12.8c0-7,5.8-12.7,12.8-12.7
							C1510.6,188.6,1516.3,194.4,1516.2,201.4z"/>
					</g>
				</g>
			</g>
			<g>
				<defs>
					<rect id="SVGID_00000072985565156643972410000013336935071562237091_" x="430.9" y="232.7" width="2148.3" height="1360.6"/>
				</defs>
				<clipPath id="SVGID_00000027590783664645676200000009173066162714121137_">
					<use xlink:href="#SVGID_00000072985565156643972410000013336935071562237091_"  style="overflow:visible;"/>
				</clipPath>
			</g>
		</g>
	</g>
</g>
</svg>
