<?xml version="1.0" encoding="utf-8"?>
<!-- Generator: Adobe Illustrator 25.4.1, SVG Export Plug-In . SVG Version: 6.00 Build 0)  -->
<svg version="1.1" xmlns="http://www.w3.org/2000/svg" xmlns:xlink="http://www.w3.org/1999/xlink" x="0px" y="0px"
	 viewBox="0 0 360 360" style="enable-background:new 0 0 360 360;" xml:space="preserve">
<style type="text/css">
	.st0{fill:#53090B;}
	.st1{fill:none;stroke:#53090B;stroke-width:16.3986;stroke-linecap:round;stroke-linejoin:round;stroke-miterlimit:10;}
	.st2{fill:none;stroke:#D25625;stroke-width:10.2491;stroke-linecap:round;stroke-linejoin:round;stroke-miterlimit:10;}
	.st3{fill:#BD3633;stroke:#53090B;stroke-width:3.0029;stroke-linecap:round;stroke-linejoin:round;stroke-miterlimit:10;}
	.st4{fill:#D25625;stroke:#53090B;stroke-width:3.0029;stroke-linecap:round;stroke-linejoin:round;stroke-miterlimit:10;}
	.st5{fill:none;stroke:#53090B;stroke-width:3.0029;stroke-linecap:round;stroke-linejoin:round;stroke-miterlimit:10;}
	.st6{fill:#EBDECC;stroke:#53090B;stroke-width:3.0029;stroke-linecap:round;stroke-linejoin:round;stroke-miterlimit:10;}
	.st7{fill:#53090B;stroke:#53090B;stroke-width:3.0029;stroke-linecap:round;stroke-linejoin:round;stroke-miterlimit:10;}
	.st8{fill:#EBDECC;}
	.st9{fill:#BD3633;}
</style>
<g id="bg">
</g>
<g id="images">
	<ellipse class="st0" cx="240.7" cy="317" rx="61.3" ry="23"/>
	<g>
		<g>
			<path class="st1" d="M231.4,230.6c-32.3,9.3-89.9-14.9-100-43.8"/>
			<path class="st2" d="M231.4,230.6c-32.3,9.3-89.9-14.9-100-43.8"/>
		</g>
		<g>
			<path class="st3" d="M206.6,310.5c0.1,7.7,11,12.5,24.2,10.9c13.2-1.6,23.9-9.1,23.7-16.8c-0.1-7.7-11-12.5-24.2-10.9
				C217.1,295.3,206.5,302.9,206.6,310.5z"/>
			<path class="st4" d="M238,299.7L238,299.7c3.9,0,7.1-3.2,7.1-7.1v-23.9c0-3.9-3.2-7.1-7.1-7.1l0,0c-3.9,0-7.1,3.2-7.1,7.1v23.9
				C230.9,296.5,234.1,299.7,238,299.7z"/>
			<path class="st5" d="M211.4,302.7c9.9-4,23,5.8,23.4,10.6"/>
		</g>
		<g>
			<path class="st3" d="M225.6,317.5c0.1,7.7,11,12.5,24.2,10.9c13.2-1.6,23.9-9.1,23.7-16.8c-0.1-7.7-11-12.5-24.2-10.9
				C236.1,302.3,225.5,309.9,225.6,317.5z"/>
			<path class="st4" d="M257,306.7L257,306.7c3.9,0,7.1-3.2,7.1-7.1v-23.9c0-3.9-3.2-7.1-7.1-7.1l0,0c-3.9,0-7.1,3.2-7.1,7.1v23.9
				C249.9,303.5,253.1,306.7,257,306.7z"/>
			<path class="st5" d="M230.4,309.7c9.9-4,23,5.8,23.4,10.6"/>
		</g>
		<path class="st4" d="M221.3,259.2c-0.5,27.8,54.1,28.6,54.5,0.8c0.5-27.8-7.8-44.2-26.1-44.2C231.4,215.7,221.7,231.4,221.3,259.2
			z"/>
		<g>
			<path class="st1" d="M268.3,237.2c4.1,17.2-15.6,37.5-33.5,14.5"/>
			<path class="st2" d="M268.3,237.2c4.1,17.2-15.6,37.5-33.5,14.5"/>
		</g>
		<g>
			
				<rect x="62.1" y="115.6" transform="matrix(0.9164 -0.4002 0.4002 0.9164 -50.9165 59.6386)" class="st6" width="110.4" height="72.3"/>
			<polyline class="st5" points="65.5,148.9 119.4,156.4 150.4,111.8 			"/>
		</g>
		<g>
			<g>
				<g>
					<g>
						<path class="st4" d="M241.6,154.8l54.5,27.4c0,0,11.9-37.8-0.5-58.6C287.9,110.7,241.6,154.8,241.6,154.8z"/>
					</g>
					<g>
						<path class="st4" d="M201.1,160.7l59,15.4c0,0,3.7-39.5-12.8-57.2C237.1,107.9,201.1,160.7,201.1,160.7z"/>
					</g>
					<path class="st4" d="M311.9,197.6c-2.3,29.2-32.9,36.9-68.4,34.1c-35.6-2.8-62.7-15.1-60.4-44.3c2.3-29.2,33-50.6,68.6-47.8
						S314.2,168.4,311.9,197.6z"/>
					<g>
						<g>
							<path class="st7" d="M228.7,205.1c-0.3,2.6-4.1,4.3-8.5,3.8c-4.4-0.5-7.7-3-7.4-5.6c0.3-2.6,4.1-4.3,8.5-3.8
								C225.7,199.9,229,202.4,228.7,205.1z"/>
							<g>
								<path class="st5" d="M232.1,220.9c8.1,1.5,13.4-4.4,13.4-4.4"/>
								<path class="st5" d="M250.3,221c-3.1-1.7-6.9-6.5-4.8-12.1"/>
							</g>
						</g>
						<g>
							<ellipse class="st6" cx="206" cy="173.3" rx="23.6" ry="22.4"/>
							<path class="st5" d="M215.5,168.4c-3.7,20.8-22.4,15.6-14.6-4.3"/>
						</g>
						<g>
							<ellipse class="st6" cx="246.8" cy="180" rx="23.6" ry="22.4"/>
							<path class="st5" d="M253.3,175c-3.7,20.8-22.4,15.6-14.6-4.3"/>
						</g>
					</g>
				</g>
				<g>
					<g>
						<g>
							<path class="st8" d="M284.8,214.6c-1.3,0-2.6-0.1-4-0.3l-96.5-12.9c-14.4-1.9-21-16.7-20.1-30.2c0.9-13.7,9.3-27.5,26-27.5
								c0.6,0,1.3,0,1.9,0.1c0,0,0.1,0,0.1,0l96.5,12.9c7.6,1,14.3,5,18.9,11.1c4.6,6.1,6.6,13.6,5.5,21.2l-0.1,0.9
								C311.2,204,299,214.6,284.8,214.6z"/>
							<g>
								<path class="st0" d="M190.3,145.2c0.6,0,1.2,0,1.8,0.1l96.5,12.9c14.9,2,25.3,15.8,23.2,30.6l-0.1,0.9
									c-1.9,13.6-13.5,23.5-26.9,23.5c-1.2,0-2.5-0.1-3.8-0.3l-96.5-12.9C157.8,196.3,159.4,145.2,190.3,145.2 M190.3,142.2
									c-8.1,0-15,3.2-20,9.2c-4.3,5.1-7,12.2-7.5,19.8c-1,14.3,6.1,29.8,21.4,31.8l96.5,12.9c1.4,0.2,2.8,0.3,4.2,0.3
									c15,0,27.8-11.2,29.8-26.1l0.1-0.9c1.1-8-1-15.9-5.8-22.3c-4.9-6.4-11.9-10.6-19.9-11.7l-96.5-12.9c-0.1,0-0.1,0-0.2,0
									C191.6,142.2,190.9,142.2,190.3,142.2L190.3,142.2z"/>
							</g>
						</g>
						<g>
							<g>
								<path class="st8" d="M285.4,205.1c-0.6,0-1.2-0.2-1.7-0.5c-0.8-0.6-1.2-1.8-1.1-3c0.1-1.1,0.6-2.2,1.4-3.2
									c1.2-1.6,2.8-2.5,4.3-2.5c0.6,0,1.2,0.2,1.7,0.6c0.6,0.4,1,1.1,1.1,1.9c0.2,1.3-0.3,2.9-1.4,4.3
									C288.5,204.1,286.8,205.1,285.4,205.1z"/>
								<path class="st0" d="M288.3,197c0.4,0,0.7,0.1,0.9,0.3c1,0.8,0.8,2.8-0.6,4.5c-1,1.3-2.3,2-3.3,2c-0.4,0-0.7-0.1-0.9-0.3
									c-1-0.8-0.7-2.8,0.6-4.5C286,197.8,287.3,197,288.3,197 M288.3,194.5C288.3,194.5,288.3,194.5,288.3,194.5
									c-1.8,0-3.8,1.1-5.3,3c-2.2,2.9-2.3,6.4-0.1,8c0.7,0.5,1.5,0.8,2.5,0.8c1.8,0,3.8-1.1,5.3-3c1.3-1.7,1.9-3.6,1.6-5.3
									c-0.2-1.1-0.7-2.1-1.6-2.8C290.1,194.8,289.2,194.5,288.3,194.5L288.3,194.5z"/>
							</g>
							<g>
								<path class="st8" d="M294.2,179.3c-2,0-4.2-1.1-5.9-2.8c-1.3-1.4-2.2-3-2.6-4.6c-0.4-1.8,0-3.4,1.1-4.4
									c0.8-0.8,1.8-1.2,3-1.2c2,0,4.2,1.1,5.9,2.8c2.9,3,3.6,6.9,1.5,9C296.5,178.9,295.4,179.3,294.2,179.3L294.2,179.3z"/>
								<path class="st0" d="M289.9,167.6c1.6,0,3.5,0.9,5,2.5c2.4,2.5,3.1,5.7,1.5,7.2c-0.6,0.5-1.3,0.8-2.2,0.8
									c-1.6,0-3.5-0.9-5-2.5c-2.4-2.4-3.1-5.7-1.5-7.2C288.2,167.9,289,167.6,289.9,167.6 M289.9,165.1c-1.6,0-2.9,0.5-3.9,1.5
									c-1.4,1.3-1.9,3.4-1.4,5.6c0.4,1.8,1.4,3.7,2.9,5.2c2,2,4.5,3.2,6.8,3.2c1.6,0,2.9-0.5,3.9-1.5c2.6-2.5,1.9-7.3-1.5-10.8
									C294.7,166.3,292.1,165.1,289.9,165.1L289.9,165.1z"/>
							</g>
						</g>
						<g>
							<path class="st0" d="M273.7,167.7c-3-3.9-7.3-6.4-12.2-7l-73.5-9.3c-0.7-0.1-1.5-0.1-2.2-0.1c0,0,0,0,0,0
								c-3.2,0.2-9,1.9-12.1,10.9c-1.1,3.3-1.8,7.3-1.9,11.1c-0.5,14.9,8.4,17.3,11.1,17.6l73.5,9.3c1.2,0.1,2.3,0.2,3.5,0.1
								c8.7-0.5,15.9-7.2,17-15.9l0.4-3.2C278,176.4,276.7,171.6,273.7,167.7z"/>
							<g>
								<g>
									<path class="st9" d="M190.2,175.4l63,8.3c2.6,0.4,5-1.4,5.3-4c0.4-2.6-1.4-5-4-5.3l-63-8.3c-2.6-0.4-5,1.4-5.3,4
										C185.8,172.7,187.6,175.1,190.2,175.4z"/>
								</g>
							</g>
							<g>
								<path class="st8" d="M179.9,161c0.5,2,3.4,3,6.5,2.3c3.1-0.8,5.3-3,4.8-5c-0.5-2-3.4-3-6.5-2.3
									C181.5,156.7,179.4,159,179.9,161z"/>
							</g>
							<g>
								<path class="st8" d="M256.2,193.6c-0.6,0-1.2,0-1.8-0.1l-1.3-0.2c-1.4-0.2-2.4-1.5-2.3-2.9c0.2-1.4,1.5-2.4,2.9-2.3l1.3,0.2
									c0.6,0.1,1.1,0.1,1.7,0.1c4.2-0.3,7.7-3.5,8.2-7.7c0.2-1.4,1.5-2.4,2.9-2.3c1.4,0.2,2.4,1.5,2.3,2.9
									c-0.9,6.7-6.3,11.8-13.1,12.2C256.7,193.6,256.5,193.6,256.2,193.6z"/>
							</g>
						</g>
						<g>
							<path class="st9" d="M313.1,219.2c-0.4,0-0.8,0-1.2-0.1c-2.4-0.3-4.6-1.6-6.3-3.8c-2.7-3.5-5.6-10.9-3.5-26.1
								c3.5-25.1,12.5-28.9,17.6-28.9c0.4,0,0.7,0,1,0.1c3,0.3,5.7,1.8,7.6,4.2c1.8,2.4,2.6,5.4,2.1,8.4l-5.5,36.1
								C323.9,214.8,318.9,219.2,313.1,219.2C313.1,219.2,313.1,219.2,313.1,219.2z"/>
							<g>
								<path class="st0" d="M319.6,161.9c0.3,0,0.6,0,0.9,0c5.4,0.6,9.2,5.4,8.4,10.8l-5.5,36.1c-0.8,5-5.2,8.8-10.3,8.8
									c-0.4,0-0.7,0-1.1-0.1c-5.4-0.6-11.2-8.2-8.5-28.1C306.6,167.2,314.2,161.9,319.6,161.9 M319.6,158.9
									c-5.6,0-15.4,3.9-19,30.2c-2.2,15.7,0.9,23.5,3.8,27.2c2.5,3.2,5.4,4.1,7.3,4.3c0.5,0,0.9,0.1,1.4,0.1
									c6.6,0,12.2-4.9,13.2-11.3l5.5-36.1c0.5-3.4-0.3-6.8-2.4-9.5c-2.1-2.7-5.1-4.4-8.6-4.8C320.4,158.9,320,158.9,319.6,158.9
									L319.6,158.9z"/>
							</g>
						</g>
						<g>
							<path class="st8" d="M321.4,209.4c-0.2,0-0.4,0-0.6,0c-1.6-0.2-2.9-0.9-3.8-2.1c-2.1-2.6-2.5-7.6-1.3-16.1
								c1.1-8,3.1-17.1,9.3-17.1c0.2,0,0.4,0,0.6,0c1.9,0.2,3.6,1.2,4.9,2.9c2.7,3.4,3.8,9.5,3,15.8
								C332.1,202.2,327,209.4,321.4,209.4L321.4,209.4z"/>
							<g>
								<path class="st0" d="M324.9,175.6c0.1,0,0.3,0,0.4,0c4.8,0.5,7.8,8.1,6.6,17c-1.2,8.6-5.8,15.3-10.5,15.3
									c-0.2,0-0.3,0-0.5,0c-4.8-0.5-5.1-7.5-3.8-16.5C318.3,182.8,320.4,175.6,324.9,175.6 M324.9,172.6c-7.3,0-9.6,9.8-10.8,18.4
									c-1.2,9-0.7,14.2,1.7,17.2c1.2,1.5,2.9,2.4,4.9,2.6c0.3,0,0.5,0,0.8,0c6.4,0,12-7.5,13.5-17.9c0.9-6.8-0.3-13.1-3.3-16.9
									c-1.6-2-3.7-3.2-6-3.5C325.4,172.6,325.1,172.6,324.9,172.6L324.9,172.6z"/>
							</g>
						</g>
					</g>
				</g>
			</g>
		</g>
	</g>
	<g>
		<path class="st8" d="M58.1,258.7c-0.8,0-1.5-0.7-1.5-1.5c0-11.9-7.4-19.2-19.2-19.2c-0.8,0-1.5-0.7-1.5-1.5s0.7-1.5,1.5-1.5
			c11.9,0,19.2-7.4,19.2-19.2c0-0.8,0.7-1.5,1.5-1.5s1.5,0.7,1.5,1.5c0,11.9,7.4,19.2,19.2,19.2c0.8,0,1.5,0.7,1.5,1.5
			s-0.7,1.5-1.5,1.5c-11.9,0-19.2,7.4-19.2,19.2C59.6,258,58.9,258.7,58.1,258.7z"/>
		<g>
			<path class="st0" d="M58.1,215.8c0,12.7,8.1,20.7,20.7,20.7c-12.7,0-20.7,8.1-20.7,20.7c0-12.7-8.1-20.7-20.7-20.7
				C50,236.5,58.1,228.4,58.1,215.8 M58.1,212.8c-1.7,0-3,1.3-3,3c0,10.9-6.8,17.7-17.7,17.7c-1.7,0-3,1.3-3,3s1.3,3,3,3
				c10.9,0,17.7,6.8,17.7,17.7c0,1.7,1.3,3,3,3s3-1.3,3-3c0-10.9,6.8-17.7,17.7-17.7c1.7,0,3-1.3,3-3s-1.3-3-3-3
				c-10.9,0-17.7-6.8-17.7-17.7C61.1,214.1,59.8,212.8,58.1,212.8L58.1,212.8z"/>
		</g>
	</g>
	<g>
		<path class="st8" d="M206,111.6c-0.8,0-1.5-0.7-1.5-1.5c0-11.9-7.4-19.2-19.2-19.2c-0.8,0-1.5-0.7-1.5-1.5s0.7-1.5,1.5-1.5
			c11.9,0,19.2-7.4,19.2-19.2c0-0.8,0.7-1.5,1.5-1.5s1.5,0.7,1.5,1.5c0,11.9,7.4,19.2,19.2,19.2c0.8,0,1.5,0.7,1.5,1.5
			s-0.7,1.5-1.5,1.5c-11.9,0-19.2,7.4-19.2,19.2C207.5,110.9,206.9,111.6,206,111.6z"/>
		<g>
			<path class="st0" d="M206,68.6c0,12.7,8.1,20.7,20.7,20.7c-12.7,0-20.7,8.1-20.7,20.7c0-12.7-8.1-20.7-20.7-20.7
				C198,89.4,206,81.3,206,68.6 M206,65.6c-1.7,0-3,1.3-3,3c0,10.9-6.8,17.7-17.7,17.7c-1.7,0-3,1.3-3,3s1.3,3,3,3
				c10.9,0,17.7,6.8,17.7,17.7c0,1.7,1.3,3,3,3s3-1.3,3-3c0-10.9,6.8-17.7,17.7-17.7c1.7,0,3-1.3,3-3s-1.3-3-3-3
				c-10.9,0-17.7-6.8-17.7-17.7C209,67,207.7,65.6,206,65.6L206,65.6z"/>
		</g>
	</g>
</g>
</svg>
