<?xml version="1.0" encoding="utf-8"?>
<!-- Generator: Adobe Illustrator 25.4.1, SVG Export Plug-In . SVG Version: 6.00 Build 0)  -->
<svg version="1.1" id="Layer_1" xmlns="http://www.w3.org/2000/svg" xmlns:xlink="http://www.w3.org/1999/xlink" x="0px" y="0px"
	 viewBox="0 0 2000 2000" style="enable-background:new 0 0 2000 2000;" xml:space="preserve">
<style type="text/css">
	.st0{fill:#A5E0DA;}
	.st1{fill:#1A2E35;}
	.st2{fill:#4D4D4D;}
	.st3{fill:#D6EADD;}
	.st4{fill:#FFFFFF;}
	.st5{fill:#F78C8B;}
</style>
<g>
	<path class="st0" d="M1367.8,889.8c-0.1-2.2-10-323.7-108.2-338.7c-118.7-18.1-259,148.3-259,148.3l0.7,0.4
		c-58.1-2.1-121.3,4.9-189.6,23.4c-71.2,19.3-130.7,48-179.7,83l0,0c0,0-164.6-17.9-258.2,32.3c-93.6,50.1,71.9,295.8,71.9,295.8
		l1.5-2.6c-9.8,121.4,30.3,237.8,103.8,303.4h738.7c0,0,140.6-80.7,162.1-275.7C1460.8,1077.5,1431.7,976.4,1367.8,889.8z"/>
	<path class="st1" d="M739.2,888.8c25.2-7.2,8-97.8-7-138.7c-19.5,8.2-40,19.3-57.3,29C685.3,819.5,711.7,896.6,739.2,888.8z"/>
	<path class="st1" d="M762.8,739c1.4-0.5,16.3-5.1,17.7-5.6c12.6-4.8,56-14.1,68.3-18c18.3,47.5,38,186.7,11.8,213.5
		C828.9,961.5,776.9,804.5,762.8,739z"/>
	<path class="st1" d="M954.8,839.7c18.6-2.5,8.4-85.4-2.7-136c-28.6,1.9-39.8,1.5-70.7,7.9C897.6,746.4,933.7,842.5,954.8,839.7z"/>
	<path class="st1" d="M1301.7,1064.2c6.2,17.7,85.4-8.8,132.7-29.7c-7.5-27.7-9.5-38.7-21.9-67.7
		C1381.7,989.6,1294.7,1044,1301.7,1064.2z"/>
	<path class="st2" d="M1314.2,1148.5c0.1,18.7,83.6,19.3,135.2,14.8c1.8-28.6,3.6-39.7,1.2-71.1
		C1414,1103.7,1314.1,1127.1,1314.2,1148.5z"/>
	<path class="st1" d="M551.1,1237.1c3.1,18.5-55.1,29.9-91.9,32.1c-6.2-28-5.3-18.7-9-49.9C477.7,1226,547.5,1216.1,551.1,1237.1z"
		/>
	<path class="st1" d="M1289.7,1444.7H551c-2.3,0-4.6-0.9-6.3-2.4c-74.4-66.4-115.3-182.2-107.5-303.6
		c-10.7-16.1-119.8-182.6-98.8-267.5c4.6-18.6,15-32.4,30.9-40.9c56.3-30.2,136.7-36.5,194.2-36.5c32.3,0,56.9,2,65.9,2.8
		c51.5-36.3,111.9-64,179.8-82.4c59-16,116.9-24.1,172.1-24.1c4.9,0,9.8,0.1,14.7,0.2c8.7-9.9,37.1-41.2,75.9-72.9
		c62.6-51.1,119.5-77,169.1-77c6.8,0,13.5,0.5,20,1.5c45.2,6.9,78.5,68.1,98.9,181.9c13.4,74.8,16.7,147.4,17.3,163
		c62.2,85.3,93.5,187.4,84,273.9c-5,45.5-16.9,88.7-35.2,128.3c-14.7,31.7-33.6,61.3-56.1,87.8c-38.5,45.3-74,66-75.5,66.8
		C1293,1444.2,1291.4,1444.7,1289.7,1444.7z M554.7,1425.7H1287c8-5,37.7-25,69-62c33.4-39.6,75.6-107.3,86.4-205.3
		c9.1-82.6-21.6-180.9-82.2-262.9c-1.1-1.6-1.8-3.4-1.9-5.4c-0.1-3.3-2.6-81.9-17.1-163.2c-8.4-47.1-19.1-85.1-31.9-112.9
		c-14.9-32.6-32.1-50.6-51.1-53.5c-5.5-0.8-11.3-1.3-17.1-1.3c-100,0-212.6,122.9-230.7,143.4c-1.3,4.1-5.1,6.8-9.4,6.6
		c-6.5-0.2-13.1-0.4-19.6-0.4c-53.5,0-109.7,7.9-167.1,23.5C747.3,750.6,687.9,778,637.6,814c-1.9,1.4-4.2,2-6.6,1.7
		c-0.3,0-28.5-3-67.5-3c-55.3,0-132.4,5.9-185.2,34.2c-11.1,6-18.1,15.4-21.5,28.8c-8,32.2,6,85.9,40.4,155.4
		c20.6,41.5,42.9,77.3,52.1,91.5c0.2,0,0.4,0.1,0.6,0.2c4.3,1.3,7,5.4,6.7,9.8C447.3,1249.5,484.8,1361.4,554.7,1425.7z"/>
	<g>
		<circle cx="1090.8" cy="1029.1" r="85.2"/>
	</g>
	<path class="st3" d="M1044,1161.2c8.7,61.8-47.3,120.8-125.1,131.7c-77.8,11-140.8-30.2-149.5-92c-8.7-61.8,22.1-93.2,96.8-117.6
		C932.1,1061.7,1035.3,1099.4,1044,1161.2z"/>
	<g>
		
			<ellipse transform="matrix(0.7071 -0.7071 0.7071 0.7071 -372.1841 1073.3435)" class="st4" cx="1109.5" cy="985.9" rx="20.1" ry="20.1"/>
	</g>
	<g>
		<circle cx="672.2" cy="1114.3" r="85.2"/>
	</g>
	<g>
		
			<ellipse transform="matrix(0.6491 -0.7607 0.7607 0.6491 -572.3933 901.4837)" class="st4" cx="690.9" cy="1071.2" rx="20.1" ry="20.1"/>
	</g>
	<path class="st5" d="M949.5,1187.2c0,0-2,37.1-43,51.1s-55-28-55-28s31.7-10.7,36.8-23.1C888.3,1187.2,924.8,1194.7,949.5,1187.2z"
		/>
	<g>
		<path class="st1" d="M912.8,1110.1c3.9,16.4-11.6,40.1-35,45.6c-23.4,5.5-45.7-9.3-49.6-25.7c-3.9-16.4,14.2-24.4,37.6-29.9
			C889.2,1094.6,909,1093.7,912.8,1110.1z"/>
	</g>
	<g>
		<path class="st1" d="M856.1,1217c-6,0-12.4-1.5-19.2-4.5c-0.2-0.1-0.3-0.2-0.5-0.2c-4.8-2-7.1-7.6-5-12.5c2-4.8,7.6-7.1,12.5-5
			c0.2,0.1,0.5,0.2,0.8,0.4c2.6,1.2,10.6,4.8,17.4,1.6c7.1-3.3,11.2-13.2,13.3-20.8c0.9-3.2,3.5-5.8,6.7-6.6
			c3.3-0.9,6.7,0.1,9.1,2.5c0,0,8,7.6,20.3,10.1c16.3,3.3,33.1-3.5,49.8-20.2c3.7-3.7,9.7-3.7,13.4,0c3.7,3.7,3.7,9.7,0,13.4
			c-27.2,27.2-52.1,28.7-68.1,25.1c-7-1.6-12.9-4.2-17.6-6.8c-4.7,9.9-11,16.8-19,20.5C865.8,1216,861.1,1217,856.1,1217z"/>
	</g>
	<g>
		<path class="st1" d="M884.6,1188c-4.2,0-8.1-2.8-9.2-7.1l-10.6-40.1c-1.3-5.1,1.7-10.3,6.8-11.6c5.1-1.3,10.3,1.7,11.6,6.8
			l10.6,40.1c1.3,5.1-1.7,10.3-6.8,11.6C886.2,1187.9,885.4,1188,884.6,1188z"/>
	</g>
	<g>
		<path class="st3" d="M1291.9,808.9c0,0-105.5-84.2-219.3-101.7c0,0,111.6-106,163.6-91C1279.9,628.9,1291.9,808.9,1291.9,808.9z"
			/>
	</g>
	<g>
		<path class="st0" d="M1268.3,1435.2c7.3-38.8,13.4-96.1,3.4-156.6c-17.7-107.8-5.9-102.3,5.7-117.8c11.6-15.5-10-41.4,49-58.9
			c0,0,35-45.6,85.1-12.8c0,0,36.5-15.8,64.3,27c0,0,44,4.2,43.7,94.8c-0.3,78.2,21.6,134.4,24.2,224.8"/>
		<path class="st1" d="M1543.7,1445.6c-5.4,0-9.8-4.3-10-9.7c-1.2-43.8-7.1-79.4-12.7-113.9c-6-36.3-11.6-70.6-11.4-111.2
			c0.3-79.3-34.3-84.8-34.7-84.8c-3-0.3-5.8-1.9-7.4-4.5c-9.8-15.1-21.7-23.5-35.3-25c-9.5-1.1-16.6,1.8-16.7,1.8
			c-3.1,1.3-6.6,1-9.4-0.8c-17.7-11.5-35-13.3-51.6-5.2c-12.5,6.1-20.1,15.7-20.2,15.8c-1.3,1.7-3.1,2.9-5.1,3.5
			c-16.2,4.8-27,10.6-32.2,17.3c-4,5.1-4.5,10.6-5.1,16.9c-0.6,6.7-1.4,14.2-6.5,21c-1.8,2.3-3.5,4.2-5,5.9
			c-7.3,8-13.5,15,1.1,104.3c10.2,62.4,3.8,121.4-3.5,160c-1,5.4-6.2,9-11.7,8c-5.4-1-9-6.2-8-11.7c6.9-37,13.2-93.6,3.4-153.1
			c-15.5-94.5-9.4-106.4,3.8-121c1.3-1.5,2.6-2.9,3.8-4.5c1.7-2.2,2.1-5.6,2.6-11c1.8-19.2,7-37.6,48.7-50.6
			c3.9-4.3,12.6-12.9,25.1-19c15.3-7.4,39-12.5,67.1,3.9c4.8-1.3,12.4-2.6,21.5-1.5c13,1.4,31.6,8,47.6,30.6
			c13.4,4.1,47.9,22.4,47.6,103.7c-0.1,38.9,5.4,72.4,11.2,107.9c5.8,35.1,11.7,71.4,13,116.6c0.2,5.5-4.2,10.1-9.7,10.3
			C1543.8,1445.6,1543.8,1445.6,1543.7,1445.6z"/>
	</g>
	<g>
		<g>
			
				<ellipse transform="matrix(0.9677 -0.2523 0.2523 0.9677 -263.6116 370.518)" class="st3" cx="1313.1" cy="1213.3" rx="19.1" ry="26.2"/>
		</g>
	</g>
	<g>
		<g>
			
				<ellipse transform="matrix(0.9677 -0.2523 0.2523 0.9677 -249.0068 376.696)" class="st3" cx="1344.5" cy="1159.4" rx="19.1" ry="26.2"/>
		</g>
	</g>
	<g>
		<g>
			<path class="st3" d="M1428.3,1138.4c3.6,14-1.7,27.5-11.9,30.2c-10.2,2.7-21.5-6.5-25.1-20.5c-3.6-14,1.7-27.5,11.9-30.2
				C1413.4,1115.2,1424.7,1124.4,1428.3,1138.4z"/>
		</g>
	</g>
	<g>
		<g>
			
				<ellipse transform="matrix(0.9677 -0.2523 0.2523 0.9677 -249.063 407.2853)" class="st3" cx="1463.7" cy="1174.9" rx="19.1" ry="26.2"/>
		</g>
	</g>
	<g>
		<g>
			<path class="st3" d="M1462.3,1235.8c4.2,25-21.5,34.8-54.4,40.4c-32.9,5.6-60.5,4.8-64.7-20.2c-4.2-25,19-49.7,51.9-55.3
				S1458,1210.8,1462.3,1235.8z"/>
		</g>
	</g>
	<g>
		<path class="st3" d="M570.8,860.7c0,0-86.4,94.6-104.1,171.4c0,0-76.9-111.2-57.1-142.5C434.7,849.9,570.8,860.7,570.8,860.7z"/>
	</g>
	<g>
		<path class="st1" d="M1679.1,1446.6H320.9c-5.7,0-10.4-4.6-10.4-10.4s4.6-10.4,10.4-10.4h1358.3c5.7,0,10.4,4.6,10.4,10.4
			S1684.9,1446.6,1679.1,1446.6z"/>
	</g>
	<g>
		<path class="st0" d="M583.2,1428.5l14.9,6.2c0,0,50.7,33.8,83.8-6.8c33.1-40.5-0.7-129.7-89.8-137.1
			c-89.2-7.4-140.5,28-148.6,136.1"/>
		<path class="st1" d="M640.9,1457.4c-4.9,0-10-0.5-15.2-1.6c-16.1-3.2-28.7-10.6-32-12.7l-14.1-5.9c-4.8-2-7.1-7.6-5.1-12.4
			c2-4.8,7.6-7.1,12.4-5.1l14.9,6.2c0.6,0.2,1.1,0.5,1.6,0.9c1.8,1.2,44,28.4,71.1-4.9c12.3-15.1,13.8-39,3.8-62.4
			c-14.3-33.7-46.9-55.9-87.1-59.2c-43.8-3.6-75.7,3.7-97.6,22.3c-23.7,20.2-37,54.5-40.8,105c-0.4,5.2-4.9,9.1-10.2,8.8
			c-5.2-0.4-9.2-5-8.8-10.2c4.2-55.8,19.7-94.4,47.4-118c25.9-22.1,62.4-30.9,111.5-26.8c47.4,3.9,85.9,30.4,103,70.7
			c12.7,29.9,10.2,61.3-6.6,81.9C676.6,1449.5,660.1,1457.4,640.9,1457.4z"/>
	</g>
	<g>
		<path class="st0" d="M633.2,1396.2c0,0,3.4,55.4-43.2,54c-46.6-1.4-47.3-38.5-48-44.6"/>
		<path class="st1" d="M591.7,1459.8c-0.7,0-1.3,0-2,0c-19.6-0.6-53.2-8.1-57-52c0-0.4-0.1-0.7-0.1-1c-0.6-5.2,3.2-9.9,8.4-10.5
			c5.2-0.6,9.9,3.2,10.5,8.4c0,0.4,0.1,0.9,0.1,1.4c1.3,14.5,6.7,33.8,38.7,34.7c9.7,0.3,17.1-2.3,22.5-7.9
			c12.2-12.5,11-35.9,11-36.1c-0.3-5.2,3.7-9.7,8.9-10c5.2-0.3,9.7,3.7,10,8.9c0.1,1.3,1.7,31.9-16.3,50.4
			C617.6,1455.2,605.9,1459.8,591.7,1459.8z"/>
	</g>
	<g>
		<path class="st0" d="M483.4,1402.3c0,0,1.6,51.3,52.8,45.2c39.8-4.7,29.2-59.4,29.2-59.4"/>
		<path class="st1" d="M528,1457.5c-13.8,0-25.4-4-34.6-11.9c-18.5-15.9-19.5-41.9-19.6-43c-0.2-5.2,4-9.6,9.2-9.8
			c0.1,0,0.2,0,0.3,0c5.1,0,9.3,4,9.5,9.2c0,0.3,0.9,19,13.1,29.3c7,6,16.8,8.3,29.2,6.8c6.9-0.8,12-3.6,15.6-8.4
			c8.4-11.5,6.8-32.6,5.4-39.7c-1-5.1,2.4-10.1,7.5-11.1c5.1-1,10.1,2.4,11.1,7.5c0.3,1.4,6.4,33.9-8.7,54.5
			c-6.8,9.3-16.4,14.7-28.7,16.1C534.1,1457.3,531,1457.5,528,1457.5z"/>
	</g>
	<path class="st1" d="M890.5,1250.7c-7.2,0-14-1.6-20.3-4.7c-19.9-9.8-27.4-31.7-27.7-32.6l18-6.1c1.2,3.4,12.2,32.6,42.9,22.1
		c34.5-11.8,36.6-42.3,36.6-42.6l19,1c-0.1,1.8-2.9,43.7-49.4,59.6C902.9,1249.6,896.6,1250.7,890.5,1250.7z"/>
</g>
</svg>
