<svg id="Layer_1" data-name="Layer 1" xmlns="http://www.w3.org/2000/svg" viewBox="0 0 587.94 573.17"><defs><style>.cls-1{fill:#a5e0da;}.cls-1,.cls-2{fill-rule:evenodd;}.cls-2,.cls-4{fill:#1a2e35;}.cls-3{fill:none;}</style></defs><path class="cls-1" d="M169.5,395.64s-16.44,22.8-33.24,41.19c-7.58,8.28-20.21,5.73-23.15,9.94-13.79,19.81,8.37,49.15,22.64,49.93,50.55,2.76,102.8-39.93,102.8-39.93Z" transform="translate(-6.03 -13.42)"/><path class="cls-1" d="M339.61,488.69s-4.15,62.72,63,95.28c19.89,9.63,38.31-9.8,38.14-18.54-.19-9.46-12.13-14.85-14.09-21.68-1.79-6.22,2.33-19.27,2.33-19.27l-33.75-42.19Z" transform="translate(-6.03 -13.42)"/><path class="cls-2" d="M411.05,548.89a9.44,9.44,0,0,1,2.9,2.65,4.78,4.78,0,0,1,.75,2.27,4.87,4.87,0,0,1-4.74,4.86c-2.56,0-5.59-1.7-5.43-4.51a5.56,5.56,0,0,1,.67-2.24,3.61,3.61,0,1,0-6.42-3.29,12.66,12.66,0,0,0-1.45,5.11c-.41,7,6.33,12.19,12.68,12.14s12.24-5.88,11.89-12.45a12,12,0,0,0-1.83-5.71,17.27,17.27,0,0,0-5.15-4.92,3.61,3.61,0,0,0-3.87,6.09Z" transform="translate(-6.03 -13.42)"/><path class="cls-2" d="M434.08,562.5a34.7,34.7,0,0,0-3-2.48,3.6,3.6,0,1,0-4.5,5.63c.78.63,1.64,1.23,2.36,1.94a3.6,3.6,0,1,0,5.1-5.09Z" transform="translate(-6.03 -13.42)"/><path class="cls-2" d="M423.18,577.61a25.85,25.85,0,0,0-1.45-4.63,3.6,3.6,0,1,0-6.72,2.61,17.85,17.85,0,0,1,1.07,3.32,3.61,3.61,0,0,0,7.1-1.3Z" transform="translate(-6.03 -13.42)"/><path class="cls-2" d="M397.12,571.91a6,6,0,0,1-.55,2.23,3.6,3.6,0,1,0,6.23,3.62,13.4,13.4,0,0,0,1.5-5.18,3.61,3.61,0,1,0-7.18-.67Z" transform="translate(-6.03 -13.42)"/><path class="cls-2" d="M151.3,464a9.5,9.5,0,0,1-2.34,3.15,4.6,4.6,0,0,1-7.5-3.25c-.27-2.54,1.13-5.74,3.94-5.86a5.78,5.78,0,0,1,2.3.44,3.6,3.6,0,0,0,2.63-6.71,12.72,12.72,0,0,0-5.24-.93c-7,.3-11.49,7.52-10.8,13.83s7.08,11.59,13.58,10.59a12.17,12.17,0,0,0,5.5-2.4,17.31,17.31,0,0,0,4.38-5.62A3.61,3.61,0,0,0,151.3,464Z" transform="translate(-6.03 -13.42)"/><path class="cls-2" d="M140.08,488.3a36.52,36.52,0,0,0,2.17-3.19,3.61,3.61,0,0,0-6.06-3.92,29,29,0,0,1-1.7,2.55,3.61,3.61,0,0,0,5.59,4.56Z" transform="translate(-6.03 -13.42)"/><path class="cls-2" d="M123.94,479a25.7,25.7,0,0,0,4.46-1.91,3.61,3.61,0,0,0-3.27-6.43,18.11,18.11,0,0,1-3.19,1.41,3.61,3.61,0,0,0,2,6.93Z" transform="translate(-6.03 -13.42)"/><path class="cls-2" d="M127,452.47a5.71,5.71,0,0,1-2.27-.32,3.61,3.61,0,0,0-3,6.57,13.57,13.57,0,0,0,5.31,1,3.61,3.61,0,0,0,0-7.22Z" transform="translate(-6.03 -13.42)"/><path class="cls-1" d="M474.74,374.66s44.12-23.26,58.35-42.72c23.42-32,24.56-71.21,16-94.2s-55.64-42.18-63-57.58,1.61-39.4,19-34.84,72.87,42.37,81.11,76c14.75,60.09,8.61,79.55-20.79,122.83-28.56,42.05-69.88,54-69.88,54Z" transform="translate(-6.03 -13.42)"/><path class="cls-2" d="M501,162.88c6.33.42,13.52,2.42,18.81,5.91a3.61,3.61,0,1,0,4-6c-6.28-4.14-14.79-6.59-22.31-7.08a3.6,3.6,0,1,0-.47,7.19Z" transform="translate(-6.03 -13.42)"/><path class="cls-2" d="M538,182.49c5,4.46,10,8.61,14.36,13.64a3.6,3.6,0,1,0,5.42-4.75c-4.59-5.25-9.79-9.6-15-14.25a3.61,3.61,0,1,0-4.83,5.36Z" transform="translate(-6.03 -13.42)"/><path class="cls-2" d="M515.25,183.84c4,1.93,8.2,3.52,11.28,7.34a3.6,3.6,0,1,0,5.61-4.52c-3.81-4.73-8.78-6.95-13.8-9.33a3.6,3.6,0,0,0-3.09,6.51Z" transform="translate(-6.03 -13.42)"/><path class="cls-2" d="M563.47,216q3.48,6.38,6.84,12.83a3.61,3.61,0,1,0,6.39-3.34q-3.39-6.51-6.91-13a3.6,3.6,0,1,0-6.32,3.46Z" transform="translate(-6.03 -13.42)"/><path class="cls-1" d="M83,274.43s-31.31-11-45.13-20c-10.79-7-38.07,22.65-30.55,34.73C50.7,359,151.38,384.34,151.38,384.34c52.94,64.18,120.39,114.94,240.09,117.45,37,41.58,118.85,66.45,152.79,56.93,12.93-3.61,14.06-30.15,11.78-38.52s-20.54-3.74-25.45-11.66c-32.78-52.86-5-87-31.07-118.3C454,335.59,353.9,310.32,353.9,310.32Z" transform="translate(-6.03 -13.42)"/><path class="cls-2" d="M371.27,336c8-.6,17.16.72,24.18,4.31a3.61,3.61,0,1,0,3.29-6.43c-8.14-4.16-18.81-5.77-28-5.08a3.61,3.61,0,0,0,.54,7.2Z" transform="translate(-6.03 -13.42)"/><path class="cls-2" d="M415,353.37c7.26,3.93,14.49,7.45,21.27,12.29a3.61,3.61,0,0,0,4.19-5.88c-7-5-14.5-8.68-22-12.76a3.61,3.61,0,0,0-3.44,6.35Z" transform="translate(-6.03 -13.42)"/><path class="cls-2" d="M391.6,360.42c5.31,1.78,10.69,3.14,15,7.58a3.6,3.6,0,1,0,5.16-5c-5.2-5.33-11.51-7.24-17.88-9.39a3.61,3.61,0,0,0-2.3,6.84Z" transform="translate(-6.03 -13.42)"/><path class="cls-2" d="M427.71,380.05c4.94,2.63,10,4.86,13.57,9.95a3.61,3.61,0,0,0,5.92-4.12c-4.25-6.11-10.16-9-16.09-12.2a3.61,3.61,0,0,0-3.4,6.37Z" transform="translate(-6.03 -13.42)"/><path class="cls-2" d="M451.35,378.1c4.6,4,9.15,8,13.68,12.13a3.6,3.6,0,1,0,4.83-5.35q-6.84-6.18-13.79-12.23a3.6,3.6,0,1,0-4.72,5.45Z" transform="translate(-6.03 -13.42)"/><path class="cls-2" d="M36.91,260.63c-1-.46-2-.88-3-1.32A3.69,3.69,0,1,0,31,266.08c.94.41,1.89.8,2.81,1.24a3.7,3.7,0,0,0,3.15-6.69Z" transform="translate(-6.03 -13.42)"/><path class="cls-2" d="M29.49,271.36a15.54,15.54,0,0,0-5.5-2.78,3.69,3.69,0,0,0-1.86,7.15,7.71,7.71,0,0,1,2.75,1.4,3.69,3.69,0,0,0,4.61-5.77Z" transform="translate(-6.03 -13.42)"/><path class="cls-2" d="M21.8,282.23a23,23,0,0,0-4-3.05A3.69,3.69,0,0,0,14,285.51a15.91,15.91,0,0,1,2.73,2,3.69,3.69,0,1,0,5.12-5.32Z" transform="translate(-6.03 -13.42)"/><path class="cls-2" d="M540.47,552.78c1.1-.08,2.18-.22,3.27-.33a3.7,3.7,0,0,0-.77-7.35c-1,.11-2,.24-3.05.32a3.69,3.69,0,1,0,.55,7.36Z" transform="translate(-6.03 -13.42)"/><path class="cls-2" d="M541.63,539.8a15.59,15.59,0,0,0,6.16-.3,3.7,3.7,0,0,0-1.91-7.14,7.61,7.61,0,0,1-3.08.14,3.7,3.7,0,0,0-1.17,7.3Z" transform="translate(-6.03 -13.42)"/><path class="cls-2" d="M543,526.55a23.65,23.65,0,0,0,5,.65,3.69,3.69,0,1,0,.19-7.38,16.22,16.22,0,0,1-3.39-.43,3.69,3.69,0,1,0-1.82,7.16Z" transform="translate(-6.03 -13.42)"/><path class="cls-2" d="M98.05,268C51.84,220.6,59.79,144.57,72.26,112.43,90.36,65.75,133.84,38,181,26c47.31-12.08,98.37-8.36,131.56,8.34C375,65.72,417,117.48,406.07,190.78c-7.83,52.28-50,102.76-73.88,114.37a2.73,2.73,0,0,0,2.38,4.92c24.73-12.05,68.78-64.25,76.9-118.48C422.81,115.71,379.65,61.94,315,29.41c-34.15-17.18-86.67-21.19-135.36-8.76S85.91,62.09,67.16,110.46c-12.93,33.34-21,112.18,27,161.31A2.73,2.73,0,1,0,98.05,268Z" transform="translate(-6.03 -13.42)"/><path class="cls-1" d="M110,282.12C61.43,233.55,60.81,176.94,103.33,146c0,0,18.71-76.33,34.55-80.27C163,59.45,197,117.28,197,117.28c36.57-4.14,66.19,6.65,92.57,24.4,0,0,82.93-21.89,107.86,8.27,22.45,27.17-49.16,103.21-49.16,103.21,8.85,39.15-3.74,62.88-38.68,70.53C232.56,330.18,165.09,318.19,110,282.12Z" transform="translate(-6.03 -13.42)"/><path class="cls-2" d="M81.31,159.17c.58-40,34-83.08,49.74-94.08a2.74,2.74,0,0,0-3.14-4.48c-16.46,11.51-51.46,56.58-52.07,98.48a2.74,2.74,0,0,0,5.47.08Z" transform="translate(-6.03 -13.42)"/><path class="cls-2" d="M145.89,58.51a54.78,54.78,0,0,1,16.87-8.19,2.74,2.74,0,1,0-1.61-5.23,60.35,60.35,0,0,0-18.55,9,2.74,2.74,0,1,0,3.29,4.37Z" transform="translate(-6.03 -13.42)"/><path class="cls-2" d="M256,278.21a32.47,32.47,0,0,1,4.33,7.56,3.64,3.64,0,1,0,6.82-2.53,39.48,39.48,0,0,0-5.3-9.35,3.64,3.64,0,1,0-5.85,4.32Z" transform="translate(-6.03 -13.42)"/><path class="cls-2" d="M271.94,277.15a22.8,22.8,0,0,1,4.12,6.68,3.64,3.64,0,1,0,6.7-2.85,30.07,30.07,0,0,0-5.51-8.8,3.64,3.64,0,1,0-5.31,5Z" transform="translate(-6.03 -13.42)"/><path class="cls-2" d="M287.49,274.87a28.46,28.46,0,0,1,3.84,8.76,3.64,3.64,0,0,0,7-1.86,35.82,35.82,0,0,0-4.85-11,3.64,3.64,0,0,0-6,4.07Z" transform="translate(-6.03 -13.42)"/><path class="cls-2" d="M100.74,219.12a30.4,30.4,0,0,0-7,5.27,3.64,3.64,0,1,0,5.32,5,22.8,22.8,0,0,1,5.28-3.92,3.64,3.64,0,0,0-3.6-6.32Z" transform="translate(-6.03 -13.42)"/><path class="cls-2" d="M88.53,213.27a23.15,23.15,0,0,0-7.06,4.82,3.64,3.64,0,1,0,5,5.24A16,16,0,0,1,91.37,220a3.64,3.64,0,0,0-2.84-6.7Z" transform="translate(-6.03 -13.42)"/><path class="cls-2" d="M81.26,279.29c27,28.35,73.23,49.32,123.89,57,50.39,7.6,105,2.06,148.76-21.62a9.61,9.61,0,1,0-9.14-16.9C304.55,319.5,254.32,324.25,208,317.27c-46-6.95-88.33-25.46-112.84-51.22a9.61,9.61,0,0,0-13.92,13.24Z" transform="translate(-6.03 -13.42)"/><path class="cls-2" d="M160.61,125.65c-.12-14.14-1.74-29.26-9.71-41.39a2.73,2.73,0,1,0-4.57,3c7.4,11.25,8.71,25.33,8.82,38.44a2.73,2.73,0,1,0,5.46,0Z" transform="translate(-6.03 -13.42)"/><path class="cls-2" d="M144.07,123.61A44,44,0,0,0,131.4,112.2a2.73,2.73,0,1,0-2.86,4.65,38.83,38.83,0,0,1,11.18,10.08,2.74,2.74,0,0,0,4.35-3.32Z" transform="translate(-6.03 -13.42)"/><path class="cls-2" d="M198.94,133.57a35.13,35.13,0,0,1,17-.48,2.73,2.73,0,1,0,1.35-5.29,40.73,40.73,0,0,0-19.8.5,2.73,2.73,0,1,0,1.44,5.27Z" transform="translate(-6.03 -13.42)"/><path class="cls-2" d="M234.51,139.1c5.26,2.22,10.46,4.19,15.44,7a2.73,2.73,0,0,0,2.71-4.75c-5.17-2.95-10.56-5-16-7.31a2.73,2.73,0,1,0-2.13,5Z" transform="translate(-6.03 -13.42)"/><path class="cls-2" d="M217.09,150.8c4,.44,11.48,4,15.18,6.31a2.73,2.73,0,1,0,2.9-4.62c-4.24-2.67-12.92-6.61-17.47-7.12a2.73,2.73,0,1,0-.61,5.43Z" transform="translate(-6.03 -13.42)"/><path class="cls-2" d="M264.47,159.1q4.61,4.18,9.11,8.46a2.73,2.73,0,1,0,3.75-4q-4.54-4.31-9.18-8.53a2.73,2.73,0,0,0-3.68,4Z" transform="translate(-6.03 -13.42)"/><path class="cls-2" d="M317.16,176.77c14.94-10.28,37.37-13.93,55.14-12.74a2.74,2.74,0,0,0,.37-5.46c-18.9-1.26-42.72,2.76-58.62,13.7a2.74,2.74,0,1,0,3.11,4.5Z" transform="translate(-6.03 -13.42)"/><path class="cls-2" d="M325.31,187.81c6.71-3,15.68-.17,21.63,3.3a2.73,2.73,0,0,0,2.75-4.72c-7.29-4.25-18.36-7.21-26.59-3.58a2.73,2.73,0,0,0,2.21,5Z" transform="translate(-6.03 -13.42)"/><path class="cls-2" d="M330.12,201.52a8.6,8.6,0,0,1,6.91,2.65,2.73,2.73,0,1,0,4-3.72,14.39,14.39,0,0,0-11.59-4.36,2.74,2.74,0,1,0,.69,5.43Z" transform="translate(-6.03 -13.42)"/><path class="cls-2" d="M169.91,243.62a29.26,29.26,0,0,0,1.18,4c2.6,5.37,7.68,8.34,13.14,9.21A20.52,20.52,0,0,0,199,253.74a2.73,2.73,0,1,0-3.18-4.44,14.93,14.93,0,0,1-10.69,2.1c-3.73-.6-7.29-2.52-9.07-6.2-.72-1.48-1.67-7.21-2.16-8.5a3.11,3.11,0,0,0-1.39-1.7,2.91,2.91,0,0,0-3.73,1.07,24.89,24.89,0,0,1-3.82,4.87,8.23,8.23,0,0,1-4,2.29c-3.77.66-8.07-1.18-7.41-5.45a2.72,2.72,0,1,0-5.38-.85c-1.32,8.39,6.33,13,13.74,11.68a13.79,13.79,0,0,0,6.82-3.68C169.08,244.52,169.51,244.08,169.91,243.62Z" transform="translate(-6.03 -13.42)"/><path class="cls-2" d="M173.74,228.66c3.9,1.09,6.44,4.19,5.68,6.93s-4.55,4.06-8.45,3-6.44-4.2-5.67-6.93S169.84,227.57,173.74,228.66Z" transform="translate(-6.03 -13.42)"/><path class="cls-3" d="M174.72,225.19c-6.1-1.71-11.7,1.19-12.9,5.47S163.9,240.32,170,242s11.69-1.2,12.89-5.47S180.81,226.9,174.72,225.19Zm-1.95,6.94a5.58,5.58,0,0,1,2.77,1.66c.22.28.49.53.41.83s-.45.37-.78.48a5.39,5.39,0,0,1-3.23,0,5.53,5.53,0,0,1-2.77-1.66c-.22-.27-.48-.52-.39-.82s.43-.37.76-.49A5.55,5.55,0,0,1,172.77,232.13Z" transform="translate(-6.03 -13.42)"/><ellipse class="cls-4" cx="124.65" cy="207.61" rx="16.31" ry="10.19" transform="translate(-110.79 271.69) rotate(-77.68)"/><ellipse class="cls-4" cx="252.58" cy="249.64" rx="16.31" ry="10.19" transform="translate(-72.86 391.43) rotate(-70.58)"/></svg>